<svg width="26" height="20" viewBox="0 0 26 20" fill="none" xmlns="http://www.w3.org/2000/svg">
<g clip-path="url(#clip0_159_4848)">
<rect width="26" height="20" rx="2" fill="white"/>
<path fill-rule="evenodd" clip-rule="evenodd" d="M0 0H26.325V20H0V0Z" fill="#2E42A5"/>
<path fill-rule="evenodd" clip-rule="evenodd" d="M8.125 0H24.7V20L8.125 0Z" fill="#FECA00"/>
<path fill-rule="evenodd" clip-rule="evenodd" d="M5.77533 2.32812L4.82017 2.84315L5.00259 1.75231L4.22986 0.979763L5.29775 0.820611L5.77533 -0.171875L6.2529 0.820611L7.32079 0.979763L6.54806 1.75231L6.73048 2.84315L5.77533 2.32812Z" fill="#F7FCFF"/>
<path fill-rule="evenodd" clip-rule="evenodd" d="M8.60821 5.89502L7.65306 6.41005L7.83548 5.3192L7.06274 4.54666L8.13064 4.38751L8.60821 3.39502L9.08579 4.38751L10.1537 4.54666L9.38094 5.3192L9.56336 6.41005L8.60821 5.89502Z" fill="#F7FCFF"/>
<path fill-rule="evenodd" clip-rule="evenodd" d="M11.2641 9.36523L10.3089 9.88026L10.4914 8.78942L9.71863 8.01687L10.7865 7.85772L11.2641 6.86523L11.7417 7.85772L12.8096 8.01687L12.0368 8.78942L12.2192 9.88026L11.2641 9.36523Z" fill="#F7FCFF"/>
<path fill-rule="evenodd" clip-rule="evenodd" d="M13.8657 12.6909L12.9105 13.2059L13.0929 12.1151L12.3202 11.3426L13.3881 11.1834L13.8657 10.1909L14.3432 11.1834L15.4111 11.3426L14.6384 12.1151L14.8208 13.2059L13.8657 12.6909Z" fill="#F7FCFF"/>
<path fill-rule="evenodd" clip-rule="evenodd" d="M16.668 16.1138L15.7129 16.6288L15.8953 15.538L15.1226 14.7654L16.1904 14.6063L16.668 13.6138L17.1456 14.6063L18.2135 14.7654L17.4408 15.538L17.6232 16.6288L16.668 16.1138Z" fill="#F7FCFF"/>
<path fill-rule="evenodd" clip-rule="evenodd" d="M19.7656 19.4258L18.8104 19.9408L18.9928 18.85L18.2201 18.0774L19.288 17.9183L19.7656 16.9258L20.2431 17.9183L21.311 18.0774L20.5383 18.85L20.7207 19.9408L19.7656 19.4258Z" fill="#F7FCFF"/>
</g>
<defs>
<clipPath id="clip0_159_4848">
<rect width="26" height="20" rx="2" fill="white"/>
</clipPath>
</defs>
</svg>
