<svg width="26" height="20" viewBox="0 0 26 20" fill="none" xmlns="http://www.w3.org/2000/svg">
<g clip-path="url(#clip0_159_4893)">
<rect width="26" height="20" rx="2" fill="white"/>
<path fill-rule="evenodd" clip-rule="evenodd" d="M0 0V20H26V0H0Z" fill="#2E42A5"/>
<mask id="mask0_159_4893" style="mask-type:luminance" maskUnits="userSpaceOnUse" x="0" y="0" width="26" height="20">
<path fill-rule="evenodd" clip-rule="evenodd" d="M0 0V20H26V0H0Z" fill="white"/>
</mask>
<g mask="url(#mask0_159_4893)">
<path fill-rule="evenodd" clip-rule="evenodd" d="M15.2659 5.1665H18.5227H18.5484H21.8052L21.1681 6.41986H19.1842V7.09308H20.7051L20.0856 8.25909H19.1842V10.591L20.6688 8.1916L22.5901 11.6038H21.8052L21.531 11.2302H19.792L18.5692 13.5476L18.5695 13.6756L18.5356 13.6113L18.5016 13.6756L18.502 13.5476L17.2791 11.2302H15.5401L15.2659 11.6038H14.481L16.4023 8.1916L17.8869 10.591V6.41986H15.9031L15.2659 5.1665ZM20.707 9.59109L20.2803 10.2642H21.0881L20.707 9.59109ZM16.3641 9.59109L16.7908 10.2642H15.983L16.3641 9.59109ZM13.2548 8.8442L13.93 8.33364L14.6053 8.8442L14.3671 7.98862L15.0226 7.44859L14.2001 7.43038L13.93 6.58605L13.66 7.43038L12.8375 7.44859L13.493 7.98862L13.2548 8.8442ZM23.12 8.33364L22.4448 8.8442L22.683 7.98862L22.0275 7.44859L22.8499 7.43038L23.12 6.58605L23.3901 7.43038L24.2125 7.44859L23.557 7.98862L23.7952 8.8442L23.12 8.33364ZM20.377 14.8359L21.0523 14.3254L21.7275 14.8359L21.4893 13.9803L22.1448 13.4403L21.3223 13.4221L21.0523 12.5778L20.7822 13.4221L19.9597 13.4403L20.6153 13.9803L20.377 14.8359ZM15.9978 14.3254L15.3226 14.8359L15.5608 13.9803L14.9053 13.4403L15.7277 13.4221L15.9978 12.5778L16.2679 13.4221L17.0903 13.4403L16.4348 13.9803L16.673 14.8359L15.9978 14.3254ZM17.8498 16.8332L18.525 16.3226L19.2002 16.8332L18.962 15.9776L19.6175 15.4376L18.7951 15.4193L18.525 14.575L18.2549 15.4193L17.4325 15.4376L18.088 15.9776L17.8498 16.8332Z" fill="#F7FCFF"/>
<path fill-rule="evenodd" clip-rule="evenodd" d="M6.5 0H9.75V8.33333H6.5V0Z" fill="#F50100"/>
<path fill-rule="evenodd" clip-rule="evenodd" d="M0 0H3.25V8.33333H0V0Z" fill="#2E42A5"/>
<path fill-rule="evenodd" clip-rule="evenodd" d="M3.25 0H6.5V8.33333H3.25V0Z" fill="#F7FCFF"/>
</g>
</g>
<defs>
<clipPath id="clip0_159_4893">
<rect width="26" height="20" rx="2" fill="white"/>
</clipPath>
</defs>
</svg>
