<svg width="26" height="20" viewBox="0 0 26 20" fill="none" xmlns="http://www.w3.org/2000/svg">
<g clip-path="url(#clip0_159_4922)">
<rect width="26" height="20" rx="2" fill="white"/>
<rect width="26" height="20" rx="1.25" fill="#E11C1B"/>
<path fill-rule="evenodd" clip-rule="evenodd" d="M0 0L26 20H0V0Z" fill="#1D1D1D"/>
<path fill-rule="evenodd" clip-rule="evenodd" d="M5.75525 15.2234H6.83735L7.35198 13.979L7.95687 15.215L9.06554 15.2772L8.11806 16.3349L8.60456 17.6092L7.40021 16.8998L6.28808 17.6155L6.7076 16.3783L5.75525 15.2234Z" fill="#EEEEF6"/>
<path fill-rule="evenodd" clip-rule="evenodd" d="M2.50525 11.8904H3.58735L4.10198 10.646L4.70687 11.882L5.81554 11.9442L4.86806 13.0019L5.35456 14.2761L4.15021 13.5668L3.03808 14.2825L3.4576 13.0453L2.50525 11.8904Z" fill="#EEEEF6"/>
<path fill-rule="evenodd" clip-rule="evenodd" d="M5.75525 10.2234H6.83735L7.35198 8.979L7.95687 10.215L9.06554 10.2772L8.11806 11.3349L8.60456 12.6092L7.40021 11.8998L6.28808 12.6155L6.7076 11.3783L5.75525 10.2234Z" fill="#EEEEF6"/>
<path fill-rule="evenodd" clip-rule="evenodd" d="M7.89038 13.8034L8.6342 13.7781L8.90271 12.9912L9.20416 13.7738L9.88861 13.8413L9.27226 14.2883L9.76935 15.0798L8.90692 14.7489L8.15945 15.0904L8.55419 14.31L7.89038 13.8034Z" fill="#EEEEF6"/>
<path fill-rule="evenodd" clip-rule="evenodd" d="M9.51538 12.1369L10.2592 12.1115L10.5277 11.3247L10.8292 12.1073L11.5136 12.1748L10.8973 12.6218L11.3944 13.4133L10.5319 13.0824L9.78445 13.4239L10.1792 12.6435L9.51538 12.1369Z" fill="#EEEEF6"/>
<path fill-rule="evenodd" clip-rule="evenodd" d="M17.1307 1.6665C17.1307 1.6665 14.621 2.18 15.3254 5.75804H14.9673C14.9673 5.75804 14.9966 5.57133 14.6524 5.46186C14.3082 5.35239 14.3771 5.39348 14.1995 5.46186C14.0218 5.53024 12.9411 5.46186 12.9411 5.46186V5.59883L13.7059 5.93759C13.7059 5.93759 13.687 6.21967 14.0067 6.37598C14.3265 6.53229 14.5586 6.60761 14.5586 6.60761C14.5586 6.60761 14.6059 6.91888 14.3063 6.91888C14.0067 6.91888 12.8017 6.51826 12.3732 7.50253C11.9446 8.4868 11.375 9.20897 11.375 9.20897H12.0176L11.8452 9.42876H12.5688L12.3732 9.54263C12.3732 9.54263 13.2683 9.53242 13.3381 9.42876C13.4079 9.3251 13.3381 9.70978 13.3381 9.70978C13.3381 9.70978 14.2053 9.30363 14.2528 9.20897L14.6576 9.49374L14.7729 9.01184L15.2072 9.20897L15.3254 8.74981C15.3254 8.74981 16.5539 10.8572 17.4857 10.7362V10.3865L18.3361 10.7362L18.444 10.5807C18.444 10.5807 19.4713 11.0103 19.7874 11.0501L19.5619 10.5807H19.7874L19.5619 9.70978H19.7874L19.3363 9.01184L19.4627 8.82287L19.3791 8.57452C19.3791 8.57452 21.0329 9.11487 20.9583 9.97457C20.8838 10.8343 20.1472 11.1812 20.1472 11.1812C20.1472 11.1812 19.4409 11.4031 18.8029 11.3554C18.8029 11.3554 19.3093 11.9689 20.3809 11.761C21.4524 11.5531 21.8075 10.4875 21.8075 10.4875C21.8075 10.4875 22.2988 11.5342 21.8944 12.0845C21.4899 12.6349 19.689 13.0213 19.689 13.0213C19.689 13.0213 20.3405 13.4131 20.9583 13.3127C21.5761 13.2123 22.5369 12.6608 22.7231 11.761C22.9094 10.8612 22.0805 9.20082 21.7051 9.01184L21.5568 8.43578L21.8944 8.57452L21.2018 6.83747L21.5376 6.91293L20.5578 5.66281L20.8275 5.57757L19.4738 4.57956L19.8789 4.4698C19.8789 4.4698 18.8783 3.94971 17.7369 4.57956L17.7477 4.36196L17.4478 4.41396L17.4655 4.17461L17.7637 3.71135L17.3161 3.53449C17.3161 3.53449 17.6779 2.97707 17.6236 2.98472C17.6236 2.98472 17.2204 3.1034 17.2433 3.05366C17.2433 3.05366 17.4467 2.51643 17.3932 2.53081C17.3932 2.53081 16.9256 2.69392 16.9948 2.6123L17.1745 2.28409L17.1307 1.6665Z" fill="#FBCD17"/>
</g>
<defs>
<clipPath id="clip0_159_4922">
<rect width="26" height="20" rx="2" fill="white"/>
</clipPath>
</defs>
</svg>
