<svg width="27" height="20" viewBox="0 0 27 20" fill="none" xmlns="http://www.w3.org/2000/svg">
<g clip-path="url(#clip0_159_5041)">
<rect width="26.6667" height="20" rx="2" fill="white"/>
<path fill-rule="evenodd" clip-rule="evenodd" d="M0 0H26.6667V20H0V0Z" fill="#E31D1C"/>
<path fill-rule="evenodd" clip-rule="evenodd" d="M0 1.66669V3.33335H26.6667V1.66669H0ZM0 5.00002V6.66669H26.6667V5.00002H0ZM0 10V8.33335H26.6667V10H0ZM0 11.6667V13.3334H26.6667V11.6667H0ZM0 16.6667V15H26.6667V16.6667H0ZM0 20V18.3334H26.6667V20H0Z" fill="#F7FCFF"/>
<rect width="15" height="11.6667" fill="#2E42A5"/>
<path fill-rule="evenodd" clip-rule="evenodd" d="M1.73334 3.62295L2.61654 3.00774L3.30164 3.50096H2.91374L3.69818 4.19479L3.43323 5.16762H3.01825L2.61531 4.27413L2.27166 5.16762H1.24707L2.03152 5.86145L1.73334 6.95629L2.61654 6.34107L3.30164 6.83429H2.91374L3.69818 7.52812L3.43323 8.50096H3.01825L2.61531 7.60746L2.27166 8.50096H1.24707L2.03152 9.19479L1.73334 10.2896L2.61654 9.6744L3.4711 10.2896L3.20541 9.19479L3.89169 8.50096H3.57514L4.28321 8.00773L4.96831 8.50096H4.5804L5.36485 9.19479L5.06667 10.2896L5.94987 9.6744L6.80443 10.2896L6.53874 9.19479L7.22502 8.50096H6.90848L7.61654 8.00773L8.30164 8.50096H7.91374L8.69818 9.19479L8.40001 10.2896L9.28321 9.6744L10.1378 10.2896L9.87208 9.19479L10.5584 8.50096H10.2418L10.9499 8.00773L11.635 8.50096H11.2471L12.0315 9.19479L11.7333 10.2896L12.6165 9.6744L13.4711 10.2896L13.2054 9.19479L13.8917 8.50096H13.0183L12.6153 7.60746L12.2717 8.50096H11.7748L11.5387 7.52812L12.225 6.83429H11.9085L12.6165 6.34107L13.4711 6.95629L13.2054 5.86145L13.8917 5.16762H13.0183L12.6153 4.27413L12.2717 5.16762H11.7748L11.5387 4.19479L12.225 3.50096H11.9085L12.6165 3.00774L13.4711 3.62295L13.2054 2.52812L13.8917 1.83429H13.0183L12.6153 0.940796L12.2717 1.83429H11.2471L12.0315 2.52812L11.7666 3.50096H11.3516L10.9486 2.60746L10.605 3.50096H10.1082L9.87208 2.52812L10.5584 1.83429H9.68492L9.28197 0.940796L8.93833 1.83429H7.91374L8.69818 2.52812L8.43323 3.50096H8.01825L7.61531 2.60746L7.27166 3.50096H6.77482L6.53874 2.52812L7.22502 1.83429H6.35159L5.94864 0.940796L5.605 1.83429H4.5804L5.36485 2.52812L5.0999 3.50096H4.68492L4.28197 2.60746L3.93833 3.50096H3.44149L3.20541 2.52812L3.89169 1.83429H3.01825L2.61531 0.940796L2.27166 1.83429H1.24707L2.03152 2.52812L1.73334 3.62295ZM11.7666 6.83429L12.0315 5.86145L11.2471 5.16762H11.635L10.9499 4.6744L10.2418 5.16762H10.5584L9.87208 5.86145L10.1082 6.83429H10.605L10.9486 5.9408L11.3516 6.83429H11.7666ZM9.96831 6.83429L9.28321 6.34107L8.57514 6.83429H8.89169L8.20541 7.52812L8.44149 8.50096H8.93833L9.28197 7.60746L9.68492 8.50096H10.0999L10.3649 7.52812L9.5804 6.83429H9.96831ZM7.03152 7.52812L6.76656 8.50096H6.35159L5.94864 7.60746L5.605 8.50096H5.10816L4.87208 7.52812L5.55836 6.83429H5.24181L5.94987 6.34107L6.63497 6.83429H6.24707L7.03152 7.52812ZM7.27166 6.83429H6.77482L6.53874 5.86145L7.22502 5.16762H6.90848L7.61654 4.6744L8.30164 5.16762H7.91374L8.69818 5.86145L8.43323 6.83429H8.01825L7.61531 5.9408L7.27166 6.83429ZM5.0999 6.83429L5.36485 5.86145L4.5804 5.16762H4.9683L4.28321 4.6744L3.57514 5.16762H3.89169L3.20541 5.86145L3.44149 6.83429H3.93833L4.28197 5.9408L4.68492 6.83429H5.0999ZM10.3649 4.19479L10.0999 5.16762H9.68492L9.28197 4.27413L8.93833 5.16762H8.44149L8.20541 4.19479L8.89169 3.50096H8.57514L9.28321 3.00774L9.96831 3.50096H9.5804L10.3649 4.19479ZM6.63497 3.50096L5.94987 3.00774L5.24181 3.50096H5.55836L4.87208 4.19479L5.10816 5.16762H5.605L5.94864 4.27413L6.35159 5.16762H6.76656L7.03152 4.19479L6.24707 3.50096H6.63497Z" fill="#F7FCFF"/>
</g>
<defs>
<clipPath id="clip0_159_5041">
<rect width="26.6667" height="20" rx="2" fill="white"/>
</clipPath>
</defs>
</svg>
