<svg width="68" height="68" viewBox="0 0 68 68" fill="none" xmlns="http://www.w3.org/2000/svg">
<rect width="68" height="68" rx="10" fill="#1570EF" fill-opacity="0.16"/>
<rect x="8" y="8" width="52" height="52" rx="8" fill="#1570EF"/>
<path d="M22.9166 28.1667C22.9166 30.744 25.0059 32.8333 27.5833 32.8333C30.1606 32.8333 32.2499 30.744 32.2499 28.1667C32.2499 25.5893 30.1606 23.5 27.5833 23.5C25.0059 23.5 22.9166 25.5893 22.9166 28.1667ZM22.3333 44.5V39.25C22.3333 36.3505 24.6838 34 27.5833 34C30.4827 34 32.8333 36.3505 32.8333 39.25V44.5H22.3333ZM40.4166 32.8333C37.8393 32.8333 35.7499 30.744 35.7499 28.1667C35.7499 25.5893 37.8393 23.5 40.4166 23.5C42.9939 23.5 45.0833 25.5893 45.0833 28.1667C45.0833 30.744 42.9939 32.8333 40.4166 32.8333ZM35.1666 44.5V39.25C35.1666 36.3505 37.5171 34 40.4166 34C43.3161 34 45.6666 36.3505 45.6666 39.25V44.5H35.1666Z" fill="white"/>
</svg>
