<svg width="52" height="52" viewBox="0 0 52 52" fill="none" xmlns="http://www.w3.org/2000/svg">
<rect width="52" height="52" rx="8" fill="white" fill-opacity="0.1"/>
<path d="M22.9265 24.4625C24.019 26.3836 25.6164 27.981 27.5375 29.0735L28.5695 27.6288C28.9126 27.1486 29.5602 27.0002 30.0782 27.2831C31.7195 28.1797 33.5333 28.7245 35.4254 28.8743C36.0322 28.9224 36.5 29.4287 36.5 30.0374V35.244C36.5 35.8421 36.0476 36.3433 35.4526 36.4044C34.8343 36.468 34.2106 36.5 33.5833 36.5C23.5962 36.5 15.5 28.4038 15.5 18.4167C15.5 17.7893 15.532 17.1657 15.5955 16.5474C15.6567 15.9524 16.1579 15.5 16.7561 15.5H21.9627C22.5713 15.5 23.0777 15.9679 23.1257 16.5746C23.2754 18.4667 23.8203 20.2806 24.7169 21.9218C24.9998 22.4398 24.8514 23.0875 24.3712 23.4305L22.9265 24.4625ZM19.985 23.6961L22.2016 22.1128C21.573 20.756 21.1423 19.3171 20.9218 17.8333H17.8439C17.8369 18.0274 17.8333 18.2218 17.8333 18.4167C17.8333 27.1151 24.8849 34.1667 33.5833 34.1667C33.7782 34.1667 33.9726 34.1632 34.1667 34.156V31.0781C32.6829 30.8576 31.244 30.4269 29.8872 29.7984L28.3039 32.0151C27.6634 31.7662 27.0449 31.4734 26.452 31.1404L26.3842 31.1018C24.098 29.8018 22.1982 27.902 20.8982 25.6158L20.8596 25.548C20.5266 24.9551 20.2338 24.3366 19.985 23.6961Z" fill="white"/>
</svg>
