<svg width="68" height="68" viewBox="0 0 68 68" fill="none" xmlns="http://www.w3.org/2000/svg">
<rect width="68" height="68" rx="10" fill="#1570EF" fill-opacity="0.16"/>
<rect x="8" y="8" width="52" height="52" rx="8" fill="#1570EF"/>
<path d="M32.8333 22.3333C37.5787 22.3333 41.497 25.8748 42.0893 30.459L44.7149 34.5876C44.8878 34.8594 44.8529 35.2654 44.4525 35.4369L42.1667 36.4161V39.8333C42.1667 41.122 41.122 42.1666 39.8333 42.1666H37.5012L37.5 45.6666H27L27.0003 41.357C27.0004 39.9793 26.4908 38.6767 25.5481 37.5012C24.2666 35.9031 23.5 33.8744 23.5 31.6666C23.5 26.5119 27.6787 22.3333 32.8333 22.3333ZM32.2146 29.0562C31.4173 28.2589 30.1246 28.2589 29.3273 29.0562C28.5299 29.8536 28.5299 31.1463 29.3273 31.9436L32.8333 35.4496L36.3394 31.9436C37.1367 31.1463 37.1367 29.8536 36.3394 29.0562C35.5421 28.2589 34.2493 28.2589 33.452 29.0562L32.8333 29.675L32.2146 29.0562Z" fill="white"/>
</svg>
