<svg width="68" height="68" viewBox="0 0 68 68" fill="none" xmlns="http://www.w3.org/2000/svg">
<rect width="68" height="68" rx="10" fill="white" fill-opacity="0.1"/>
<rect x="8" y="8" width="52" height="52" rx="8" fill="white"/>
<path d="M34.0001 36.3334V38.6667C30.1341 38.6667 27.0001 41.8008 27.0001 45.6667H24.6667C24.6667 40.5121 28.8454 36.3334 34.0001 36.3334ZM34.0001 35.1667C30.1326 35.1667 27.0001 32.0342 27.0001 28.1667C27.0001 24.2992 30.1326 21.1667 34.0001 21.1667C37.8676 21.1667 41.0001 24.2992 41.0001 28.1667C41.0001 32.0342 37.8676 35.1667 34.0001 35.1667ZM34.0001 32.8334C36.5784 32.8334 38.6667 30.7451 38.6667 28.1667C38.6667 25.5884 36.5784 23.5001 34.0001 23.5001C31.4217 23.5001 29.3334 25.5884 29.3334 28.1667C29.3334 30.7451 31.4217 32.8334 34.0001 32.8334ZM41.0001 45.0834L37.5714 46.886L38.2262 43.068L35.4522 40.3641L39.2857 39.8072L41.0001 36.3334L42.7145 39.8072L46.5479 40.3641L43.7739 43.068L44.4288 46.886L41.0001 45.0834Z" fill="#1570EF"/>
</svg>
