<svg width="93" height="92" viewBox="0 0 93 92" fill="none" xmlns="http://www.w3.org/2000/svg">
<rect x="0.666748" width="92" height="92" rx="16" fill="#1570EF"/>
<g clip-path="url(#clip0_152_9365)">
<path d="M50.2554 32.9343C49.0924 32.6156 47.885 32.454 46.6667 32.454C39.1974 32.454 33.1207 38.5307 33.1207 46C33.1207 53.4693 39.1974 59.546 46.6667 59.546C54.1361 59.546 60.2128 53.4693 60.2128 46C60.2128 44.7817 60.0512 43.5743 59.7324 42.4113C59.5134 41.6124 59.9836 40.7872 60.7825 40.5682C61.581 40.3493 62.4066 40.8194 62.6256 41.6183C63.0161 43.0461 63.2135 44.5198 63.2128 46C63.2128 55.1235 55.7902 62.546 46.6667 62.546C37.5433 62.546 30.1207 55.1235 30.1207 46C30.1207 36.8765 37.5433 29.454 46.6667 29.454C48.153 29.454 49.6271 29.6515 51.0484 30.0411C51.7147 30.2238 52.1523 30.8281 52.1522 31.4871C52.1521 31.6213 52.1341 31.7549 52.0985 31.8842C51.8796 32.6832 51.0545 33.1536 50.2554 32.9343ZM67.8184 38.1663C67.0241 38.4015 66.5707 39.2359 66.8059 40.0304C67.3772 41.9598 67.6667 43.9682 67.6667 46C67.6667 57.5794 58.2462 67 46.6667 67C35.0873 67 25.6667 57.5794 25.6667 46C25.6667 34.4206 35.0873 25 46.6667 25C48.6987 25 50.7071 25.2896 52.6361 25.8607C53.4305 26.096 54.265 25.6425 54.5002 24.8482C54.5422 24.7062 54.5623 24.563 54.5623 24.4221C54.5625 23.7748 54.1401 23.1773 53.4877 22.9841C51.282 22.331 48.9872 22 46.6667 22C40.2561 22 34.2291 24.4965 29.6961 29.0294C25.1632 33.5625 22.6667 39.5894 22.6667 46C22.6667 52.4106 25.1632 58.4376 29.6961 62.9706C34.229 67.5036 40.2561 70 46.6667 70C53.0774 70 59.1043 67.5035 63.6374 62.9706C68.1703 58.4376 70.6667 52.4106 70.6667 46C70.6667 43.6798 70.3356 41.3848 69.6826 39.1788C69.4474 38.3844 68.6127 37.9314 67.8184 38.1663ZM46.6667 40C46.8873 40 47.1101 40.0122 47.3289 40.0362C48.1528 40.1268 48.8933 39.5322 48.9835 38.7088C49.0739 37.8853 48.4796 37.1445 47.6561 37.0542C47.3275 37.0181 46.9973 37 46.6667 37C41.7041 37 37.6667 41.0373 37.6667 46C37.6667 50.9627 41.7041 55 46.6667 55C51.6294 55 55.6667 50.9627 55.6667 46C55.6667 45.1715 54.9952 44.5 54.1667 44.5C53.3383 44.5 52.6667 45.1715 52.6667 46C52.6667 49.3084 49.9752 52 46.6667 52C43.3583 52 40.6667 49.3084 40.6667 46C40.6667 42.6916 43.3583 40 46.6667 40ZM54.3256 36.2201L55.0727 28.7251C55.1071 28.3803 55.2597 28.0581 55.5047 27.8132L60.8787 22.4393C61.0814 22.2366 61.3379 22.0963 61.618 22.0349C61.898 21.9735 62.1897 21.9936 62.4586 22.0928C62.7276 22.1921 62.9624 22.3663 63.1354 22.5948C63.3084 22.8234 63.4123 23.0968 63.4348 23.3825L63.8609 28.806L69.2842 29.232C69.57 29.2544 69.8434 29.3583 70.072 29.5313C70.3006 29.7043 70.4748 29.9391 70.5741 30.2081C70.6733 30.477 70.6934 30.7688 70.632 31.0488C70.5705 31.3288 70.4302 31.5854 70.2274 31.7881L64.8535 37.1619C64.6086 37.4069 64.2864 37.5595 63.9417 37.5938L56.4468 38.3414L47.7274 47.0607C47.5883 47.2002 47.423 47.3108 47.2409 47.3862C47.0589 47.4616 46.8638 47.5003 46.6667 47.5C46.4697 47.5003 46.2746 47.4616 46.0926 47.3862C45.9106 47.3108 45.7453 47.2001 45.6062 47.0606C45.0203 46.4748 45.0203 45.5251 45.6062 44.9393L54.3256 36.2201ZM57.4394 35.2276L63.1109 34.6619L65.8048 31.968L62.3484 31.6965C61.9923 31.6685 61.6578 31.5143 61.4052 31.2617C61.1526 31.0091 60.9985 30.6747 60.9705 30.3185L60.699 26.8619L58.0049 29.5559L57.4394 35.2276Z" fill="white"/>
</g>
<defs>
<clipPath id="clip0_152_9365">
<rect width="48" height="48" fill="white" transform="translate(22.6667 22)"/>
</clipPath>
</defs>
</svg>
