<svg width="95" height="90" viewBox="0 0 95 90" fill="none" xmlns="http://www.w3.org/2000/svg">
<path opacity="0.2" d="M95 89.1089L92.8092 72.6732C87.3655 73.0693 83.2495 72.0132 80.4612 69.505C77.673 66.9967 75.8805 63.5643 75.0839 59.2079C74.2872 54.8515 74.0881 50.033 74.4864 44.7525L95 44.7525L95 -6.7577e-07L55.9644 2.73683e-06L55.9644 50.6931C55.9644 64.5545 59.3501 74.9835 66.1216 81.9802C73.0259 89.1089 82.652 91.4851 95 89.1089ZM39.0356 89.1089L36.8449 72.6733C31.4011 73.0693 27.2851 72.0132 24.4969 69.505C21.7086 66.9967 19.9161 63.5644 19.1195 59.2079C18.3228 54.8515 18.1237 50.033 18.522 44.7525L39.0356 44.7525L39.0356 4.21679e-06L-7.86805e-06 7.62939e-06L-3.43632e-06 50.6931C-2.22452e-06 64.5545 3.38574 74.9835 10.1572 81.9802C17.0615 89.1089 26.6876 91.4851 39.0356 89.1089Z" fill="#1570EF"/>
</svg>
