<svg width="68" height="68" viewBox="0 0 68 68" fill="none" xmlns="http://www.w3.org/2000/svg">
<rect width="68" height="68" rx="10" fill="white" fill-opacity="0.1"/>
<rect x="8" y="8" width="52" height="52" rx="8" fill="white"/>
<path d="M45.6666 32.8334V43.3334H43.3333V39.8334H24.6666V43.3334H22.3333V24.6667H24.6666V36.3334H33.9999V28.1667H40.9999C43.5772 28.1667 45.6666 30.2561 45.6666 32.8334ZM43.3333 36.3334V32.8334C43.3333 31.5448 42.2886 30.5001 40.9999 30.5001H36.3333V36.3334H43.3333ZM29.3333 32.8334C29.9776 32.8334 30.4999 32.3111 30.4999 31.6667C30.4999 31.0224 29.9776 30.5001 29.3333 30.5001C28.6889 30.5001 28.1666 31.0224 28.1666 31.6667C28.1666 32.3111 28.6889 32.8334 29.3333 32.8334ZM29.3333 35.1667C27.4003 35.1667 25.8333 33.5998 25.8333 31.6667C25.8333 29.7338 27.4003 28.1667 29.3333 28.1667C31.2662 28.1667 32.8333 29.7338 32.8333 31.6667C32.8333 33.5998 31.2662 35.1667 29.3333 35.1667Z" fill="#1570EF"/>
</svg>
