<svg width="68" height="68" viewBox="0 0 68 68" fill="none" xmlns="http://www.w3.org/2000/svg">
<rect width="68" height="68" rx="10" fill="white" fill-opacity="0.1"/>
<rect x="8" y="8" width="52" height="52" rx="8" fill="white"/>
<path d="M43.6163 25.5503C46.2561 28.1955 46.3467 32.4098 43.8916 35.1585L33.9998 45.0658L24.1082 35.1585C21.6531 32.4098 21.7449 28.1888 24.3835 25.5503C27.0251 22.9087 31.2526 22.8197 34.0011 25.2833C36.7416 22.8233 40.9766 22.905 43.6163 25.5503ZM26.0334 27.2002C24.2954 28.9382 24.2081 31.7219 25.8098 33.5604L33.9998 41.7634L42.19 33.5604C43.7923 31.7212 43.7054 28.9428 41.9647 27.1985C40.2296 25.4598 37.4367 25.3761 35.6033 26.9811L30.7001 31.8847L29.0502 30.2347L32.3456 26.937L32.2501 26.8565C30.4129 25.3806 27.727 25.5066 26.0334 27.2002Z" fill="#1570EF"/>
</svg>
