<svg width="21" height="21" viewBox="0 0 21 21" fill="none" xmlns="http://www.w3.org/2000/svg">
<path d="M8.16683 1.33301V2.99967H13.1668V1.33301H14.8335V2.99967H18.1668C18.6271 2.99967 19.0002 3.37277 19.0002 3.83301V17.1663C19.0002 17.6266 18.6271 17.9997 18.1668 17.9997H3.16683C2.7066 17.9997 2.3335 17.6266 2.3335 17.1663V3.83301C2.3335 3.37277 2.7066 2.99967 3.16683 2.99967H6.50016V1.33301H8.16683ZM17.3335 9.66634H4.00016V16.333H17.3335V9.66634ZM6.50016 4.66634H4.00016V7.99967H17.3335V4.66634H14.8335V6.33301H13.1668V4.66634H8.16683V6.33301H6.50016V4.66634Z" fill="#667085"/>
</svg>
