<svg width="93" height="92" viewBox="0 0 93 92" fill="none" xmlns="http://www.w3.org/2000/svg">
<rect x="0.333252" width="92" height="92" rx="16" fill="#1570EF"/>
<g clip-path="url(#clip0_152_9350)">
<path d="M66.302 51.625C66.302 54.2134 64.2029 56.3125 61.6145 56.3125C59.0261 56.3125 56.927 54.2134 56.927 51.625C56.927 49.0366 59.0261 46.9375 61.6145 46.9375C64.2029 46.9375 66.302 49.0366 66.302 51.625Z" stroke="white" stroke-width="2.5" stroke-miterlimit="10" stroke-linecap="round" stroke-linejoin="round"/>
<path d="M36.0207 67.5625H23.2708V65.6875C23.2708 61.5456 26.9101 58.1875 31.052 58.1875C33.5842 58.1875 36.1042 59.4419 37.4616 61.3638" stroke="white" stroke-width="2.5" stroke-miterlimit="10" stroke-linecap="round" stroke-linejoin="round"/>
<path d="M55.2048 61.3638C56.5623 59.4419 59.0823 58.1875 61.6145 58.1875C65.7564 58.1875 69.3957 61.5456 69.3957 65.6875V67.5625H56.6458" stroke="white" stroke-width="2.5" stroke-miterlimit="10" stroke-linecap="round" stroke-linejoin="round"/>
<path d="M35.7395 51.625C35.7395 54.2134 33.6404 56.3125 31.052 56.3125C28.4636 56.3125 26.3645 54.2134 26.3645 51.625C26.3645 49.0366 28.4636 46.9375 31.052 46.9375C33.6404 46.9375 35.7395 49.0366 35.7395 51.625Z" stroke="white" stroke-width="2.5" stroke-miterlimit="10" stroke-linecap="round" stroke-linejoin="round"/>
<path d="M52.8957 47.875C52.8957 51.4994 49.9576 54.4375 46.3332 54.4375C42.7089 54.4375 39.7708 51.4994 39.7708 47.875C39.7708 44.2507 42.7089 41.3125 46.3332 41.3125C49.9576 41.3125 52.8957 44.2507 52.8957 47.875Z" stroke="white" stroke-width="2.5" stroke-miterlimit="10" stroke-linecap="round" stroke-linejoin="round"/>
<path d="M46.2993 24.4377L44.2715 28.5842L39.7378 29.2423L43.019 32.4401L42.2447 36.9561L46.2993 34.8242C47.8228 35.6248 48.8747 36.1779 50.355 36.9561L49.5796 32.4401L52.8609 29.2423L48.3271 28.5842L46.2993 24.4377Z" stroke="white" stroke-width="2.5" stroke-miterlimit="10" stroke-linecap="round" stroke-linejoin="round"/>
<path d="M62.203 40.2429L65.0896 41.7598L64.5383 38.546L66.8736 36.2688L63.6459 35.8001L62.203 32.8751L60.7593 35.8001L57.5315 36.2688L59.8668 38.546L59.3156 41.7598L62.203 40.2429Z" stroke="white" stroke-width="2.5" stroke-miterlimit="10" stroke-linecap="round" stroke-linejoin="round"/>
<path d="M30.3283 40.2429L33.2148 41.7598L32.6636 38.546L34.9989 36.2688L31.7711 35.8001L30.3283 32.8751L28.8845 35.8001L25.6567 36.2688L27.992 38.546L27.4408 41.7598L30.3283 40.2429Z" stroke="white" stroke-width="2.5" stroke-miterlimit="10" stroke-linecap="round" stroke-linejoin="round"/>
<path d="M56.6457 67.5625H36.0208V66.625C36.0208 64.7031 36.5467 62.9041 37.4617 61.3638C39.2598 58.3394 42.5598 56.3125 46.3332 56.3125C49.1813 56.3125 51.7595 57.4666 53.6251 59.3331C54.2316 59.9397 54.7632 60.6213 55.2048 61.3638C56.1198 62.9041 56.6457 64.7031 56.6457 66.625V67.5625Z" stroke="white" stroke-width="2.5" stroke-miterlimit="10" stroke-linecap="round" stroke-linejoin="round"/>
</g>
<defs>
<clipPath id="clip0_152_9350">
<rect width="48" height="48" fill="white" transform="translate(22.3333 22)"/>
</clipPath>
</defs>
</svg>
